<svg width="21" height="21" viewBox="0 0 21 21" fill="none" xmlns="http://www.w3.org/2000/svg">
<path d="M18.44 11.5C18.22 11.5 17.99 11.43 17.77 11.38C17.3245 11.2818 16.8866 11.1515 16.46 10.99C15.9961 10.8212 15.4861 10.83 15.0283 11.0146C14.5704 11.1992 14.1971 11.5466 13.98 11.99L13.76 12.44C12.786 11.8982 11.891 11.2252 11.1 10.44C10.3147 9.64901 9.6418 8.75399 9.09998 7.77999L9.51998 7.49999C9.96334 7.28291 10.3108 6.90952 10.4954 6.45168C10.68 5.99384 10.6888 5.4839 10.52 5.01999C10.3612 4.59241 10.2309 4.15479 10.13 3.70999C10.08 3.48999 10.04 3.25999 10.01 3.02999C9.88854 2.32561 9.5196 1.68773 8.9696 1.23123C8.4196 0.774727 7.72467 0.529599 7.00998 0.53999H4.00998C3.57901 0.535944 3.15223 0.624804 2.75869 0.800521C2.36515 0.976238 2.01409 1.23469 1.72941 1.55827C1.44473 1.88186 1.23311 2.26298 1.10897 2.6757C0.98482 3.08842 0.951058 3.52305 1.00998 3.94999C1.54272 8.13937 3.45601 12.0319 6.44763 15.0126C9.43925 17.9934 13.3387 19.8925 17.53 20.41H17.91C18.6474 20.4111 19.3594 20.1405 19.91 19.65C20.2263 19.367 20.4791 19.0202 20.6514 18.6323C20.8238 18.2444 20.9119 17.8244 20.91 17.4V14.4C20.8977 13.7054 20.6448 13.0365 20.1943 12.5077C19.7439 11.9788 19.1238 11.6226 18.44 11.5ZM18.94 17.5C18.9398 17.642 18.9094 17.7823 18.8508 17.9116C18.7921 18.0409 18.7066 18.1563 18.6 18.25C18.4886 18.347 18.358 18.4194 18.2167 18.4625C18.0754 18.5056 17.9266 18.5183 17.78 18.5C14.0349 18.0198 10.5562 16.3065 7.89269 13.6303C5.22917 10.9541 3.53239 7.46733 3.06998 3.71999C3.05406 3.57351 3.06801 3.42532 3.11098 3.28438C3.15395 3.14344 3.22505 3.01268 3.31998 2.89999C3.41369 2.79332 3.52904 2.70783 3.65836 2.64921C3.78767 2.59058 3.92799 2.56017 4.06998 2.55999H7.06998C7.30253 2.55482 7.5296 2.63087 7.71212 2.77506C7.89464 2.91925 8.02119 3.12256 8.06998 3.34999C8.10998 3.62332 8.15998 3.89332 8.21998 4.15999C8.3355 4.68713 8.48924 5.20517 8.67998 5.70999L7.27998 6.35999C7.16028 6.41491 7.0526 6.49294 6.96314 6.58959C6.87367 6.68623 6.80418 6.7996 6.75865 6.92318C6.71312 7.04677 6.69245 7.17812 6.69783 7.30971C6.7032 7.4413 6.73452 7.57054 6.78998 7.68999C8.22918 10.7727 10.7072 13.2508 13.79 14.69C14.0334 14.79 14.3065 14.79 14.55 14.69C14.6747 14.6454 14.7893 14.5764 14.8871 14.4872C14.985 14.3979 15.0641 14.2901 15.12 14.17L15.74 12.77C16.2569 12.9549 16.7846 13.1085 17.32 13.23C17.5866 13.29 17.8566 13.34 18.13 13.38C18.3574 13.4288 18.5607 13.5553 18.7049 13.7378C18.8491 13.9204 18.9252 14.1474 18.92 14.38L18.94 17.5Z" fill="#F55016"/>
</svg>
